<?xml version="1.0" encoding="utf-8"?>
<!-- Generator: Adobe Illustrator 24.3.0, SVG Export Plug-In . SVG Version: 6.00 Build 0)  -->
<svg version="1.1" id="Layer_1" xmlns="http://www.w3.org/2000/svg" xmlns:xlink="http://www.w3.org/1999/xlink" x="0px" y="0px"
	 viewBox="0 0 16 16" style="enable-background:new 0 0 16 16;" xml:space="preserve">
<path d="M8,1c0-0.6,0.4-1,1-1h6c0.6,0,1,0.4,1,1v14c0,0.6-0.4,1-1,1H9c-0.6,0-1-0.4-1-1V1z M9,14.5C9,14.8,9.2,15,9.5,15
	s0.5-0.2,0.5-0.5S9.8,14,9.5,14S9,14.2,9,14.5 M11,14.5c0,0.3,0.2,0.5,0.5,0.5s0.5-0.2,0.5-0.5S11.8,14,11.5,14S11,14.2,11,14.5
	 M9.5,1C9.2,1,9,1.2,9,1.5S9.2,2,9.5,2h5C14.8,2,15,1.8,15,1.5S14.8,1,14.5,1H9.5z M9,3.5C9,3.8,9.2,4,9.5,4h5C14.8,4,15,3.8,15,3.5
	S14.8,3,14.5,3h-5C9.2,3,9,3.2,9,3.5 M1.5,2C0.7,2,0,2.7,0,3.5v7C0,11.3,0.7,12,1.5,12H6v2H5.5C5.2,14,5,14.2,5,14.5S5.2,15,5.5,15
	H7v-4H1.5C1.2,11,1,10.8,1,10.5v-7C1,3.2,1.2,3,1.5,3H7V2H1.5z"/>
</svg>
